<svg xmlns="http://www.w3.org/2000/svg" xmlns:xlink="http://www.w3.org/1999/xlink" width="800" zoomAndPan="magnify" viewBox="0 0 600 299.999988" height="400" preserveAspectRatio="xMidYMid meet" version="1.0"><defs><clipPath id="ced41d97d8"><path d="M 510 81.113281 L 569 81.113281 L 569 142 L 510 142 Z M 510 81.113281 " clip-rule="nonzero"/></clipPath></defs><path fill="#ffffff" d="M 67.765625 172.757812 C 54.867188 174.585938 46.300781 181.554688 40.976562 192.804688 C 40.589844 193.617188 40.273438 194.46875 39.816406 195.242188 C 38.78125 196.984375 37.1875 197.761719 35.230469 197.277344 C 33.175781 196.769531 32.476562 195.175781 32.5 193.160156 C 32.539062 189.105469 34.101562 185.511719 36.148438 182.183594 C 42.796875 171.363281 52.828125 165.78125 65.113281 163.585938 C 73.734375 162.046875 82.460938 162.964844 91.128906 161.960938 C 104.015625 160.464844 114.886719 153.035156 117.328125 142.019531 C 119.542969 132.03125 117.851562 122.296875 112.40625 113.480469 C 109.542969 108.847656 104.816406 106.851562 99.765625 105.523438 C 90.761719 103.164062 81.8125 100.71875 73.6875 95.902344 C 57 86.015625 49.085938 70.617188 46.0625 52.167969 C 45.410156 48.199219 45.148438 44.15625 44.984375 40.101562 C 44.800781 35.546875 46.4375 33.421875 50.964844 33.1875 C 76.257812 31.871094 97.464844 39.511719 111.816406 61.480469 C 118.34375 71.472656 121.699219 82.609375 121.355469 94.6875 C 121.3125 96.292969 121.671875 98.050781 119.445312 99.675781 C 114.441406 91.753906 110.222656 83.316406 103.636719 76.539062 C 97.003906 69.714844 89.664062 63.976562 80.632812 60.277344 C 101.246094 75.867188 113.730469 96.957031 122.371094 120.882812 C 124.285156 115.324219 124.976562 109.675781 125.246094 103.996094 C 125.703125 94.359375 127.121094 84.894531 130.0625 75.710938 C 137.902344 51.242188 155.320312 37.828125 179.980469 33.035156 C 187.492188 31.574219 195.148438 31.214844 202.773438 30.667969 C 205.949219 30.441406 207.925781 31.285156 207.902344 35.070312 C 207.796875 55.273438 202.679688 73.886719 190.6875 90.363281 C 181.675781 102.75 168.945312 109.535156 154.621094 113.507812 C 137.890625 118.148438 133.894531 123.355469 134.007812 143.546875 C 134.03125 147.796875 136.421875 150.996094 139.507812 153.480469 C 145.707031 158.46875 152.621094 161.953125 160.84375 161.875 C 171.09375 161.78125 181.253906 162.304688 190.941406 166.121094 C 200.132812 169.742188 207.183594 175.679688 210.980469 185.015625 C 211.539062 186.394531 211.933594 187.871094 212.167969 189.34375 C 212.488281 191.339844 212.472656 193.332031 210 194.117188 C 207.398438 194.949219 205.574219 194.003906 204.570312 191.546875 C 199.128906 178.199219 187.949219 173.25 174.792969 171.597656 C 170.160156 171.015625 165.351562 170.90625 159.6875 171.738281 C 162.761719 176.574219 166.546875 179.269531 170.296875 181.730469 C 175.554688 185.183594 181.242188 187.972656 186.660156 191.1875 C 194.777344 196.007812 202.148438 201.605469 205.539062 210.941406 C 206.097656 212.480469 206.546875 214.117188 206.667969 215.738281 C 206.832031 217.933594 206.308594 220.078125 203.796875 220.71875 C 201.300781 221.355469 199.8125 219.992188 199.074219 217.691406 C 195.277344 205.859375 185.105469 201.050781 175.160156 196 C 174.953125 195.898438 174.59375 196.09375 173.933594 196.222656 C 173.15625 199.71875 174.695312 203.113281 174.988281 206.578125 C 175.117188 208.074219 175.476562 209.542969 174.96875 211.019531 C 174.386719 212.726562 173.328125 213.863281 171.394531 213.917969 C 169.417969 213.972656 168.304688 212.804688 167.789062 211.109375 C 166.695312 207.527344 165.757812 203.898438 164.726562 200.296875 C 160.054688 184.007812 148.914062 173.449219 134.304688 165.96875 C 133.914062 165.765625 133.457031 165.652344 133.015625 165.59375 C 132.742188 165.554688 132.445312 165.699219 131.910156 165.816406 C 130.640625 168.109375 131.164062 170.625 131.667969 173.074219 C 133.320312 181.132812 137.609375 187.734375 143.195312 193.601562 C 152.925781 203.816406 163.550781 213.160156 172.789062 223.859375 C 176.242188 227.863281 179.328125 232.121094 181.089844 237.152344 C 181.992188 239.734375 182.761719 242.683594 179.449219 244.175781 C 176.25 245.617188 175.015625 243.019531 173.59375 240.808594 C 171.359375 237.332031 169.390625 233.628906 165.503906 229.839844 C 165.503906 234.054688 165.5 237.171875 165.507812 240.292969 C 165.511719 242.117188 165.324219 243.910156 164.351562 245.5 C 163.4375 246.996094 162.15625 248.097656 160.289062 247.714844 C 158.355469 247.320312 157.738281 245.808594 157.730469 243.988281 C 157.71875 242.1875 157.601562 240.375 157.738281 238.585938 C 158.453125 229.003906 154.878906 220.828125 148.910156 213.773438 C 144.234375 208.246094 139.121094 203.015625 132.398438 197.910156 C 132.164062 209.574219 130.363281 220.070312 138.265625 229.277344 C 144.15625 236.144531 148.644531 244.007812 149.730469 253.328125 C 149.832031 254.21875 150.058594 255.101562 150.105469 255.996094 C 150.25 258.648438 150.203125 261.535156 146.90625 262.03125 C 143.429688 262.554688 142.210938 259.835938 141.800781 257 C 140.6875 249.351562 137.292969 242.847656 131.902344 236.082031 C 131 242.367188 130.304688 247.722656 129.449219 253.050781 C 128.761719 257.363281 127.351562 261.484375 125.683594 265.507812 C 124.710938 267.851562 123.425781 269.988281 120.359375 269.03125 C 117.273438 268.066406 116.761719 265.460938 117.375 262.820312 C 118.527344 257.863281 120.019531 253.003906 120.910156 247.960938 C 121.914062 242.28125 121.777344 236.597656 121.804688 230.910156 C 121.871094 218.453125 121.660156 206 122.523438 193.554688 C 122.664062 191.566406 123.042969 189.347656 120.910156 187.285156 C 115.703125 192.695312 109.585938 197.195312 105.542969 203.542969 C 100.453125 211.523438 101.347656 219.929688 105.523438 227.960938 C 109.890625 236.363281 110.804688 245.035156 108.71875 254.128906 C 108.316406 255.875 107.632812 257.597656 106.273438 258.871094 C 105.113281 259.960938 103.738281 260.457031 102.140625 259.832031 C 100.535156 259.199219 99.851562 257.988281 99.917969 256.304688 C 99.9375 255.855469 99.878906 255.375 100.011719 254.960938 C 104.125 242.058594 95.925781 231.582031 93.25 218.917969 C 87.410156 226.46875 83.160156 233.664062 81.738281 242.292969 C 81.371094 244.503906 81.035156 246.730469 80.820312 248.960938 C 80.5625 251.628906 79.152344 253.160156 76.523438 253.238281 C 73.769531 253.316406 73.15625 251.390625 72.945312 249.042969 C 72.273438 241.511719 73.789062 234.398438 77.007812 227.648438 C 83.84375 213.316406 92.226562 200.09375 104.167969 189.324219 C 110.664062 183.464844 116.5 177.003906 119.066406 168.269531 C 119.710938 166.085938 120.214844 163.945312 119.679688 161.675781 C 119.339844 161.628906 118.929688 161.453125 118.808594 161.570312 C 111.882812 168.382812 103.609375 173.261719 95.226562 177.953125 C 83.484375 184.523438 78 194.582031 78.039062 207.925781 C 78.046875 210.753906 77.582031 213.605469 77.089844 216.402344 C 76.714844 218.535156 75.214844 219.878906 73.003906 219.917969 C 70.441406 219.964844 69.710938 217.996094 69.628906 215.960938 C 69.449219 211.46875 69.242188 206.949219 69.972656 202.480469 C 70.238281 200.839844 70.394531 199.238281 69.996094 197.246094 C 66.148438 198.621094 63.730469 201.46875 61.21875 204.109375 C 57.367188 208.160156 54.210938 212.703125 51.867188 217.8125 C 50.605469 220.558594 49.1875 223.902344 45.347656 222.296875 C 41.210938 220.566406 42.28125 217.066406 43.574219 213.816406 C 47.933594 202.832031 56.035156 194.867188 64.8125 187.441406 C 70.878906 182.3125 77.296875 177.648438 84.894531 173.03125 C 78.699219 172.007812 73.433594 172.117188 67.765625 172.757812 M 145.511719 90.617188 C 154.035156 77.882812 165.042969 67.574219 177.351562 58.542969 C 156.609375 64.742188 133.90625 91.945312 133.363281 110.699219 C 137.289062 104.203125 141.222656 97.679688 145.511719 90.617188 Z M 145.511719 90.617188 " fill-opacity="1" fill-rule="nonzero"/><g clip-path="url(#ced41d97d8)"><path fill="#ffffff" d="M 537.207031 141.121094 C 523.21875 139.949219 513.878906 131.652344 511.121094 118.269531 C 508.296875 104.558594 514.289062 91.113281 525.808594 85.296875 C 537.582031 79.359375 551.863281 81.457031 560.351562 90.996094 C 569.183594 100.929688 570.476562 112.625 565.507812 124.585938 C 560.464844 136.71875 550.363281 141.46875 537.207031 141.121094 M 549.570312 126.296875 C 550.128906 125.714844 550.742188 125.175781 551.238281 124.546875 C 556.8125 117.523438 556.867188 106.363281 551.214844 99.417969 C 547.234375 94.53125 541.804688 93.339844 535.914062 94.476562 C 529.179688 95.773438 525.761719 100.453125 524.164062 106.84375 C 522.296875 114.316406 525.078125 123.371094 530.601562 127.199219 C 535.949219 130.910156 543.058594 130.714844 549.570312 126.296875 Z M 549.570312 126.296875 " fill-opacity="1" fill-rule="nonzero"/></g><path fill="#ffffff" d="M 282.164062 118.964844 C 279.265625 120.277344 279.238281 121.820312 280.769531 124.152344 C 283.917969 128.945312 286.804688 133.914062 289.816406 138.847656 C 282.894531 142.21875 276.402344 140.464844 272.914062 134.703125 C 270.960938 131.476562 268.960938 128.277344 267 125.054688 C 266.113281 123.601562 265.050781 122.648438 263.160156 122.5625 C 257.9375 122.328125 257.417969 122.746094 257.402344 128.027344 C 257.398438 130.183594 257.539062 132.351562 257.359375 134.496094 C 257.199219 136.359375 258.445312 139.144531 255.871094 139.800781 C 252.664062 140.617188 249.167969 140.804688 245.953125 139.519531 C 244.726562 139.03125 244.863281 137.464844 244.863281 136.25 C 244.859375 119.804688 244.890625 103.359375 244.851562 86.917969 C 244.84375 84.164062 245.984375 83.078125 248.742188 83.132812 C 255.347656 83.261719 261.964844 82.960938 268.554688 83.277344 C 281.414062 83.894531 288.828125 90.398438 289.890625 101.988281 C 290.523438 108.859375 288.339844 114.734375 282.164062 118.964844 M 258.960938 95.152344 C 256.417969 96.542969 257.46875 98.972656 257.449219 100.953125 C 257.347656 112.535156 257.398438 112.535156 268.828125 111.460938 C 273.609375 111.011719 276.957031 107.566406 277.007812 103.039062 C 277.054688 98.835938 273.726562 95.421875 268.929688 95.089844 C 265.851562 94.878906 262.746094 95.042969 258.960938 95.152344 Z M 258.960938 95.152344 " fill-opacity="1" fill-rule="nonzero"/><path fill="#ffffff" d="M 483.742188 83.875 C 496.234375 86.140625 506.972656 95.457031 506.078125 113.472656 C 505.371094 127.699219 494.644531 139.207031 477.996094 140.132812 C 472.21875 140.453125 466.414062 140.136719 460.625 140.222656 C 457.933594 140.265625 456.710938 139.257812 456.722656 136.4375 C 456.792969 119.871094 456.773438 103.304688 456.777344 86.738281 C 456.78125 84.796875 457.203125 83.164062 459.605469 83.214844 C 467.539062 83.386719 475.496094 82.53125 483.742188 83.875 M 492.265625 105.324219 C 489.132812 97.324219 478.675781 92.339844 470.976562 95.140625 C 469.722656 95.597656 469.398438 96.480469 469.398438 97.636719 C 469.398438 106.933594 469.417969 116.230469 469.394531 125.523438 C 469.390625 127.574219 470.351562 128.367188 472.351562 128.449219 C 487.46875 129.066406 495.433594 120.996094 492.265625 105.324219 Z M 492.265625 105.324219 " fill-opacity="1" fill-rule="nonzero"/><path fill="#ffffff" d="M 556.171875 176.988281 C 562.421875 194.457031 554.59375 211.886719 538.644531 216.59375 C 524.890625 220.65625 510.902344 215.210938 504.636719 203.355469 C 497.929688 190.65625 501.011719 174.300781 511.765625 165.535156 C 526.378906 153.625 548.300781 159.152344 556.171875 176.988281 M 525.976562 206.050781 C 537.167969 206.894531 542.523438 203.421875 545.097656 193.875 C 545.746094 191.46875 545.816406 189.074219 545.640625 186.683594 C 544.835938 175.859375 535.59375 168.882812 525.851562 171.652344 C 518.78125 173.660156 514.285156 179.472656 513.894531 187.105469 C 513.425781 196.273438 517.3125 202.671875 525.976562 206.050781 Z M 525.976562 206.050781 " fill-opacity="1" fill-rule="nonzero"/><path fill="#ffffff" d="M 492.195312 217.164062 C 484.648438 218.65625 480.15625 215.589844 477.414062 209.007812 C 476.339844 206.425781 474.484375 204.175781 473.035156 201.746094 C 472.15625 200.269531 471.085938 199.363281 469.21875 199.226562 C 464.238281 198.863281 463.628906 199.339844 463.601562 204.371094 C 463.582031 207.605469 463.578125 210.839844 463.570312 214.074219 C 463.566406 216 462.722656 216.921875 460.683594 217.164062 C 451.65625 218.234375 451.03125 217.738281 451.03125 208.742188 C 451.03125 194.320312 451.140625 179.894531 450.957031 165.476562 C 450.90625 161.726562 452.144531 160.523438 455.824219 160.679688 C 462.011719 160.9375 468.21875 160.753906 474.417969 160.808594 C 484.476562 160.902344 492.28125 165.8125 494.484375 174.007812 C 497.414062 184.925781 493.8125 192.316406 485.734375 196.886719 C 485.507812 197.015625 485.335938 197.238281 484.757812 197.769531 C 487.941406 202.953125 491.140625 208.199219 494.382812 213.417969 C 495.808594 215.710938 495.878906 217.242188 492.195312 217.164062 M 463.597656 180.101562 C 463.617188 181.988281 463.640625 183.871094 463.65625 185.757812 C 463.667969 187.375 464.386719 188.300781 466.085938 188.285156 C 469.183594 188.261719 472.316406 188.53125 475.371094 188.140625 C 480.125 187.539062 482.839844 184.105469 482.691406 179.539062 C 482.542969 175.089844 479.832031 172.414062 474.882812 171.929688 C 473.679688 171.8125 472.460938 171.855469 471.25 171.867188 C 462.816406 171.953125 463.628906 170.789062 463.597656 180.101562 Z M 463.597656 180.101562 " fill-opacity="1" fill-rule="nonzero"/><path fill="#ffffff" d="M 342.417969 140.183594 C 338.792969 140.191406 338.097656 137.605469 337.597656 135.304688 C 336.613281 130.773438 334.066406 129.226562 329.53125 129.695312 C 325.800781 130.082031 321.984375 129.984375 318.234375 129.714844 C 314.71875 129.460938 312.722656 130.71875 311.636719 134.09375 C 310.964844 136.175781 310.945312 139.160156 308.457031 139.828125 C 305.09375 140.734375 301.460938 140.609375 298.050781 139.902344 C 295.507812 139.371094 296.890625 137.359375 297.425781 135.976562 C 302.097656 123.941406 306.820312 111.921875 311.507812 99.890625 C 313.070312 95.882812 314.726562 91.898438 316.074219 87.816406 C 317.191406 84.4375 318.957031 82.859375 322.796875 83.074219 C 331.558594 83.5625 330.015625 81.609375 333.613281 90.628906 C 339.496094 105.367188 345.265625 120.152344 351.070312 134.921875 C 351.601562 136.277344 352.347656 137.59375 352.152344 139.375 C 349.160156 140.980469 345.890625 139.863281 342.417969 140.183594 M 326.03125 117.960938 C 327.304688 117.792969 328.707031 118.363281 330.207031 117.007812 C 328.582031 111.933594 327 106.679688 324.269531 100.65625 C 322.023438 106.839844 320.117188 112.078125 317.980469 117.960938 C 321.09375 117.960938 323.210938 117.960938 326.03125 117.960938 Z M 326.03125 117.960938 " fill-opacity="1" fill-rule="nonzero"/><path fill="#ffffff" d="M 336.492188 162.277344 C 336.429688 174.480469 337.582031 186.382812 336.035156 198.144531 C 334.140625 212.558594 324.476562 219.464844 309.929688 217.636719 C 296.402344 215.933594 290.167969 209.015625 290.042969 195.34375 C 289.949219 185.109375 290.140625 174.871094 289.949219 164.640625 C 289.882812 161.152344 291.296875 160.019531 294.472656 160.320312 C 294.875 160.359375 295.28125 160.332031 295.683594 160.332031 C 302.410156 160.335938 302.421875 160.335938 302.441406 166.988281 C 302.46875 176.550781 302.3125 186.117188 302.558594 195.671875 C 302.761719 203.453125 308.316406 207.535156 315.949219 205.953125 C 321.097656 204.886719 323.945312 201.460938 323.992188 195.875 C 324.085938 185.640625 324.1875 175.402344 323.972656 165.171875 C 323.890625 161.359375 325.359375 159.941406 328.910156 160.363281 C 331.449219 160.667969 334.351562 159.3125 336.492188 162.277344 Z M 336.492188 162.277344 " fill-opacity="1" fill-rule="nonzero"/><path fill="#ffffff" d="M 427.613281 197.800781 C 427.671875 186.9375 427.691406 176.429688 427.742188 165.917969 C 427.765625 160.574219 428.078125 160.300781 433.550781 160.390625 C 434.355469 160.40625 435.171875 160.546875 435.972656 160.480469 C 439.195312 160.226562 440.421875 161.472656 440.347656 164.886719 C 440.121094 174.988281 440.300781 185.097656 440.214844 195.203125 C 440.101562 208.785156 434.183594 215.566406 420.765625 217.519531 C 415.453125 218.292969 410.265625 217.523438 405.335938 215.457031 C 396 211.539062 394.164062 203.242188 393.863281 194.492188 C 393.519531 184.53125 393.84375 174.550781 393.742188 164.578125 C 393.710938 161.417969 395.058594 160.378906 398.105469 160.3125 C 406.246094 160.140625 406.242188 160.042969 406.242188 167.941406 C 406.246094 177.105469 406.203125 186.269531 406.273438 195.429688 C 406.304688 199.402344 407.429688 203 411.335938 204.839844 C 415.617188 206.859375 419.988281 206.796875 424.074219 204.257812 C 426.253906 202.902344 427.242188 200.664062 427.613281 197.800781 Z M 427.613281 197.800781 " fill-opacity="1" fill-rule="nonzero"/><path fill="#ffffff" d="M 394.667969 140.207031 C 392.511719 140.203125 390.753906 140.308594 389.011719 140.175781 C 387.105469 140.03125 384.523438 141.101562 383.589844 138.707031 C 382.609375 136.183594 382.769531 133.457031 384.527344 131.03125 C 389.90625 123.613281 395.222656 116.15625 400.566406 108.71875 C 403.457031 104.691406 406.363281 100.671875 409.679688 96.070312 C 404.160156 95.121094 399.285156 94.960938 394.375 95.160156 C 393.03125 95.214844 391.6875 95.316406 390.347656 95.261719 C 383.976562 95 383.976562 94.984375 384.054688 88.59375 C 384.121094 83.289062 384.226562 83.164062 389.523438 83.160156 C 400.03125 83.144531 410.542969 83.089844 421.050781 83.210938 C 423.175781 83.238281 426.136719 81.953125 427.265625 84.589844 C 428.5625 87.617188 428.300781 90.9375 426.207031 93.808594 C 422.558594 98.816406 418.886719 103.808594 415.25 108.824219 C 410.753906 115.027344 406.28125 121.246094 401.867188 127.363281 C 402.671875 128.914062 403.882812 128.4375 404.859375 128.441406 C 411.191406 128.492188 417.527344 128.566406 423.859375 128.429688 C 426.847656 128.363281 428.214844 129.160156 428.1875 132.5 C 428.132812 140.199219 428.292969 140.203125 420.535156 140.203125 C 412.046875 140.203125 403.558594 140.203125 394.667969 140.207031 Z M 394.667969 140.207031 " fill-opacity="1" fill-rule="nonzero"/><path fill="#ffffff" d="M 262.902344 172.472656 C 260.796875 172.804688 258.125 171.570312 257.65625 174.042969 C 257.070312 177.136719 256.734375 180.480469 258 183.550781 C 258.441406 184.625 259.925781 184.269531 260.972656 184.277344 C 265.285156 184.304688 269.609375 184.492188 273.902344 184.230469 C 277.546875 184.011719 278.839844 185.488281 278.402344 188.929688 C 278.316406 189.59375 278.324219 190.285156 278.402344 190.949219 C 278.777344 194.195312 277.539062 195.605469 274.105469 195.425781 C 269.804688 195.199219 265.484375 195.476562 261.175781 195.351562 C 258.433594 195.269531 257.257812 196.277344 257.335938 199.105469 C 257.464844 203.816406 257.238281 208.539062 257.398438 213.246094 C 257.503906 216.265625 256.285156 217.253906 253.359375 217.207031 C 243.738281 217.054688 244.882812 218.019531 244.863281 208.808594 C 244.828125 194.261719 244.949219 179.710938 244.773438 165.167969 C 244.726562 161.371094 246.15625 160.238281 249.742188 160.300781 C 258.761719 160.457031 267.792969 160.4375 276.816406 160.316406 C 280.296875 160.269531 282.289062 161.234375 281.726562 165.136719 C 281.574219 166.191406 281.601562 167.296875 281.714844 168.363281 C 282.058594 171.621094 280.46875 172.621094 277.429688 172.527344 C 272.71875 172.382812 268.003906 172.480469 262.902344 172.472656 Z M 262.902344 172.472656 " fill-opacity="1" fill-rule="nonzero"/><path fill="#ffffff" d="M 359.867188 160.339844 C 367.6875 160.351562 375.109375 160.511719 382.519531 160.3125 C 386.441406 160.207031 387.976562 161.734375 387.527344 165.542969 C 387.40625 166.609375 387.460938 167.699219 387.484375 168.777344 C 387.542969 171.304688 386.351562 172.496094 383.804688 172.4375 C 381.515625 172.382812 379.222656 172.421875 376.929688 172.433594 C 371.492188 172.460938 371.480469 172.460938 371.480469 177.734375 C 371.472656 189.199219 371.34375 200.664062 371.550781 212.121094 C 371.617188 215.90625 370.605469 217.753906 366.601562 217.175781 C 365.808594 217.0625 364.976562 217.078125 364.179688 217.171875 C 360.722656 217.585938 359.445312 216.28125 359.507812 212.636719 C 359.714844 200.773438 359.46875 188.902344 359.65625 177.035156 C 359.710938 173.472656 358.539062 172.042969 355.015625 172.433594 C 353.683594 172.582031 352.320312 172.445312 350.972656 172.449219 C 344 172.472656 341.550781 168.984375 343.777344 162.351562 C 344.40625 160.484375 345.851562 160.402344 347.328125 160.382812 C 351.371094 160.316406 355.417969 160.347656 359.867188 160.339844 Z M 359.867188 160.339844 " fill-opacity="1" fill-rule="nonzero"/><path fill="#ffffff" d="M 372.953125 94.746094 C 372.957031 108.46875 372.863281 121.792969 373.027344 135.113281 C 373.074219 138.953125 371.757812 140.660156 367.890625 140.203125 C 367.226562 140.128906 366.546875 140.199219 365.875 140.195312 C 360.496094 140.164062 360.425781 140.117188 360.417969 134.8125 C 360.40625 119.203125 360.507812 103.589844 360.347656 87.984375 C 360.308594 84.316406 361.4375 83.015625 365.179688 83.085938 C 372.957031 83.230469 372.960938 83.054688 372.953125 90.707031 C 372.953125 91.917969 372.953125 93.128906 372.953125 94.746094 Z M 372.953125 94.746094 " fill-opacity="1" fill-rule="nonzero"/></svg>