<svg xmlns="http://www.w3.org/2000/svg" xmlns:xlink="http://www.w3.org/1999/xlink" width="800" zoomAndPan="magnify" viewBox="0 0 600 599.999999" height="800" preserveAspectRatio="xMidYMid meet" version="1.0"><path fill="#ffffff" d="M 192.835938 344.765625 C 167.46875 348.363281 150.621094 362.0625 140.148438 384.191406 C 139.390625 385.792969 138.761719 387.46875 137.863281 388.984375 C 135.832031 392.410156 132.691406 393.941406 128.847656 392.988281 C 124.804688 391.988281 123.433594 388.859375 123.472656 384.894531 C 123.554688 376.921875 126.625 369.851562 130.648438 363.304688 C 143.726562 342.023438 163.460938 331.039062 187.617188 326.722656 C 204.574219 323.695312 221.742188 325.503906 238.789062 323.527344 C 264.136719 320.585938 285.511719 305.972656 290.316406 284.304688 C 294.671875 264.660156 291.347656 245.519531 280.636719 228.179688 C 275.003906 219.0625 265.710938 215.136719 255.773438 212.527344 C 238.066406 207.882812 220.464844 203.074219 204.484375 193.605469 C 171.660156 174.15625 156.097656 143.871094 150.152344 107.585938 C 148.871094 99.773438 148.351562 91.828125 148.027344 83.847656 C 147.667969 74.890625 150.886719 70.71875 159.789062 70.253906 C 209.542969 67.667969 251.253906 82.6875 279.476562 125.898438 C 292.316406 145.554688 298.914062 167.460938 298.242188 191.214844 C 298.152344 194.367188 298.859375 197.828125 294.480469 201.023438 C 284.640625 185.445312 276.347656 168.851562 263.386719 155.515625 C 250.34375 142.097656 235.910156 130.8125 218.140625 123.539062 C 258.683594 154.199219 283.242188 195.675781 300.234375 242.734375 C 304.003906 231.804688 305.363281 220.695312 305.894531 209.523438 C 306.792969 190.570312 309.582031 171.949219 315.367188 153.894531 C 330.785156 105.761719 365.046875 79.382812 413.546875 69.953125 C 428.316406 67.082031 443.378906 66.371094 458.375 65.296875 C 464.621094 64.851562 468.503906 66.515625 468.464844 73.960938 C 468.253906 113.695312 458.1875 150.300781 434.601562 182.710938 C 416.875 207.074219 391.839844 220.417969 363.667969 228.230469 C 330.765625 237.359375 322.902344 247.597656 323.125 287.3125 C 323.171875 295.667969 327.871094 301.960938 333.941406 306.847656 C 346.132812 316.65625 359.734375 323.511719 375.90625 323.363281 C 396.070312 323.175781 416.046875 324.207031 435.101562 331.710938 C 453.183594 338.832031 467.046875 350.511719 474.515625 368.875 C 475.617188 371.585938 476.390625 374.492188 476.851562 377.382812 C 477.480469 381.3125 477.453125 385.226562 472.589844 386.777344 C 467.46875 388.414062 463.882812 386.550781 461.910156 381.71875 C 451.203125 355.46875 429.214844 345.734375 403.34375 342.480469 C 394.234375 341.335938 384.773438 341.121094 373.628906 342.761719 C 379.679688 352.273438 387.125 357.574219 394.496094 362.414062 C 404.835938 369.203125 416.027344 374.6875 426.683594 381.011719 C 442.644531 390.488281 457.144531 401.503906 463.816406 419.867188 C 464.914062 422.890625 465.796875 426.113281 466.035156 429.296875 C 466.359375 433.617188 465.324219 437.835938 460.390625 439.09375 C 455.472656 440.347656 452.554688 437.667969 451.101562 433.140625 C 443.628906 409.871094 423.625 400.40625 404.0625 390.480469 C 403.65625 390.273438 402.953125 390.660156 401.652344 390.910156 C 400.121094 397.789062 403.152344 404.464844 403.726562 411.28125 C 403.976562 414.226562 404.683594 417.113281 403.691406 420.019531 C 402.542969 423.371094 400.464844 425.609375 396.65625 425.714844 C 392.769531 425.824219 390.578125 423.53125 389.5625 420.199219 C 387.417969 413.148438 385.574219 406.007812 383.542969 398.925781 C 374.355469 366.890625 352.441406 346.125 323.710938 331.410156 C 322.9375 331.015625 322.039062 330.789062 321.171875 330.671875 C 320.636719 330.601562 320.050781 330.882812 319 331.109375 C 316.503906 335.625 317.535156 340.566406 318.519531 345.382812 C 321.769531 361.234375 330.210938 374.21875 341.195312 385.757812 C 360.335938 405.851562 381.230469 424.226562 399.398438 445.273438 C 406.195312 453.144531 412.261719 461.523438 415.726562 471.414062 C 417.503906 476.492188 419.019531 482.300781 412.5 485.234375 C 406.207031 488.066406 403.78125 482.957031 400.984375 478.605469 C 396.589844 471.769531 392.714844 464.484375 385.070312 457.035156 C 385.070312 465.324219 385.058594 471.457031 385.074219 477.59375 C 385.085938 481.183594 384.722656 484.710938 382.808594 487.835938 C 381.007812 490.777344 378.488281 492.941406 374.8125 492.191406 C 371.011719 491.414062 369.800781 488.441406 369.78125 484.863281 C 369.761719 481.316406 369.53125 477.757812 369.796875 474.234375 C 371.207031 455.386719 364.175781 439.3125 352.433594 425.433594 C 343.238281 414.5625 333.183594 404.277344 319.957031 394.234375 C 319.496094 417.171875 315.957031 437.820312 331.496094 455.929688 C 343.085938 469.433594 351.914062 484.898438 354.046875 503.230469 C 354.25 504.984375 354.695312 506.71875 354.789062 508.476562 C 355.066406 513.691406 354.976562 519.375 348.492188 520.351562 C 341.660156 521.382812 339.261719 516.03125 338.449219 510.457031 C 336.261719 495.410156 329.589844 482.621094 318.980469 469.308594 C 317.210938 481.671875 315.839844 492.203125 314.160156 502.6875 C 312.804688 511.164062 310.035156 519.273438 306.75 527.1875 C 304.835938 531.796875 302.316406 536.003906 296.28125 534.117188 C 290.214844 532.21875 289.203125 527.09375 290.414062 521.898438 C 292.679688 512.148438 295.613281 502.589844 297.367188 492.675781 C 299.339844 481.503906 299.066406 470.324219 299.125 459.136719 C 299.25 434.640625 298.84375 410.140625 300.539062 385.671875 C 300.8125 381.761719 301.5625 377.394531 297.363281 373.335938 C 287.121094 383.976562 275.089844 392.828125 267.136719 405.3125 C 257.128906 421.011719 258.886719 437.542969 267.097656 453.339844 C 275.691406 469.863281 277.488281 486.917969 273.382812 504.804688 C 272.59375 508.242188 271.246094 511.628906 268.570312 514.136719 C 266.292969 516.277344 263.589844 517.253906 260.449219 516.023438 C 257.285156 514.78125 255.941406 512.398438 256.078125 509.085938 C 256.113281 508.203125 256 507.261719 256.257812 506.441406 C 264.351562 481.0625 248.226562 460.460938 242.957031 435.554688 C 231.472656 450.40625 223.121094 464.550781 220.320312 481.523438 C 219.601562 485.878906 218.9375 490.253906 218.511719 494.644531 C 218.003906 499.890625 215.234375 502.902344 210.0625 503.050781 C 204.648438 503.207031 203.4375 499.425781 203.027344 494.804688 C 201.707031 479.992188 204.6875 466 211.015625 452.726562 C 224.460938 424.53125 240.949219 398.53125 264.433594 377.347656 C 277.210938 365.820312 288.691406 353.109375 293.738281 335.941406 C 295.003906 331.640625 296 327.429688 294.945312 322.964844 C 294.277344 322.875 293.464844 322.527344 293.226562 322.761719 C 279.609375 336.160156 263.339844 345.753906 246.84375 354.984375 C 223.753906 367.90625 212.96875 387.691406 213.042969 413.929688 C 213.058594 419.492188 212.144531 425.105469 211.175781 430.609375 C 210.4375 434.804688 207.488281 437.445312 203.140625 437.523438 C 198.101562 437.609375 196.660156 433.738281 196.5 429.738281 C 196.148438 420.898438 195.742188 412.015625 197.175781 403.222656 C 197.703125 399.992188 198.003906 396.851562 197.222656 392.929688 C 189.65625 395.632812 184.902344 401.234375 179.960938 406.429688 C 172.386719 414.390625 166.175781 423.328125 161.566406 433.378906 C 159.085938 438.78125 156.296875 445.359375 148.746094 442.199219 C 140.609375 438.796875 142.71875 431.910156 145.253906 425.519531 C 153.828125 403.914062 169.765625 388.246094 187.03125 373.644531 C 198.964844 363.554688 211.585938 354.382812 226.527344 345.300781 C 214.339844 343.289062 203.984375 343.503906 192.835938 344.765625 M 345.746094 183.207031 C 362.515625 158.15625 384.164062 137.886719 408.375 120.125 C 367.574219 132.316406 322.925781 185.816406 321.859375 222.707031 C 329.574219 209.925781 337.316406 197.097656 345.746094 183.207031 Z M 345.746094 183.207031 " fill-opacity="1" fill-rule="nonzero"/></svg>